{
	"asset":{
		"generator":"Khronos glTF Blender I/O v4.1.63",
		"version":"2.0"
	},
	"extensionsUsed":[
		"KHR_texture_transform"
	],
	"extensionsRequired":[
		"KHR_texture_transform"
	],
	"scene":0,
	"scenes":[
		{
			"name":"Scene",
			"nodes":[
				0,
				1,
				2
			]
		}
	],
	"nodes":[
		{
			"mesh":0,
			"name":"fluteBase",
			"scale":[
				0.14941880106925964,
				0.95087730884552,
				0.7720754146575928
			],
			"translation":[
				0.0011047422885894775,
				0,
				0
			]
		},
		{
			"mesh":1,
			"name":"redThread",
			"scale":[
				0.15874691307544708,
				0.05952601134777069,
				0.15874691307544708
			],
			"translation":[
				-0.004769384860992432,
				1.6426527500152588,
				-0.00578676164150238
			]
		},
		{
			"mesh":2,
			"name":"RedThread2",
			"scale":[
				0.03285050392150879,
				0.03285050392150879,
				0.03285050392150879
			],
			"translation":[
				0.13796906173229218,
				1.6308099031448364,
				0.033965833485126495
			]
		}
	],
	"materials":[
		{
			"doubleSided":true,
			"name":"Wood",
			"normalTexture":{
				"extensions":{
					"KHR_texture_transform":{
						"offset":[
							0.0017453282359632244,
							-0.2999984590321211
						],
						"rotation":-0.0017453291220590472
					}
				},
				"index":0,
				"texCoord":1
			},
			"pbrMetallicRoughness":{
				"baseColorTexture":{
					"extensions":{
						"KHR_texture_transform":{
							"offset":[
								0.0017453282359632244,
								-0.2999984590321211
							],
							"rotation":-0.0017453291220590472
						}
					},
					"index":1,
					"texCoord":1
				},
				"metallicFactor":0.14909091591835022,
				"metallicRoughnessTexture":{
					"extensions":{
						"KHR_texture_transform":{
							"offset":[
								0.0017453282359632244,
								-0.2999984590321211
							],
							"rotation":-0.0017453291220590472
						}
					},
					"index":2,
					"texCoord":1
				}
			}
		},
		{
			"doubleSided":true,
			"name":"Red Velvet",
			"normalTexture":{
				"index":3,
				"scale":0.10000002384185791,
				"texCoord":1
			},
			"pbrMetallicRoughness":{
				"baseColorTexture":{
					"index":4,
					"texCoord":1
				},
				"metallicRoughnessTexture":{
					"index":5,
					"texCoord":1
				},
				"roughnessFactor":0.5618181228637695
			}
		},
		{
			"doubleSided":true,
			"name":"Red Velvet",
			"normalTexture":{
				"index":3,
				"scale":0.10000002384185791
			},
			"pbrMetallicRoughness":{
				"baseColorTexture":{
					"index":4
				},
				"metallicRoughnessTexture":{
					"index":5
				},
				"roughnessFactor":0.5618181228637695
			}
		}
	],
	"meshes":[
		{
			"name":"Cube",
			"primitives":[
				{
					"attributes":{
						"POSITION":0,
						"NORMAL":1,
						"TEXCOORD_0":2,
						"TEXCOORD_1":3
					},
					"indices":4,
					"material":0
				}
			]
		},
		{
			"name":"Cube.002",
			"primitives":[
				{
					"attributes":{
						"POSITION":5,
						"NORMAL":6,
						"TEXCOORD_0":7,
						"TEXCOORD_1":8
					},
					"indices":9,
					"material":1
				}
			]
		},
		{
			"name":"Mesh",
			"primitives":[
				{
					"attributes":{
						"POSITION":10,
						"NORMAL":11,
						"TEXCOORD_0":12
					},
					"indices":13,
					"material":2
				}
			]
		}
	],
	"textures":[
		{
			"sampler":0,
			"source":0
		},
		{
			"sampler":0,
			"source":1
		},
		{
			"sampler":0,
			"source":2
		},
		{
			"sampler":0,
			"source":3
		},
		{
			"sampler":0,
			"source":4
		},
		{
			"sampler":0,
			"source":5
		}
	],
	"images":[
		{
			"mimeType":"image/jpeg",
			"name":"wood__normal",
			"uri":"wood__normal.jpg"
		},
		{
			"mimeType":"image/jpeg",
			"name":"wood__diffuse",
			"uri":"wood__diffuse.jpg"
		},
		{
			"mimeType":"image/png",
			"name":"wood__glossiness",
			"uri":"wood__glossiness.png"
		},
		{
			"mimeType":"image/jpeg",
			"name":"4K-velvet_2_height",
			"uri":"4K-velvet_2_height.jpg"
		},
		{
			"mimeType":"image/jpeg",
			"name":"4K-velvet_2_basecolor",
			"uri":"4K-velvet_2_basecolor.jpg"
		},
		{
			"mimeType":"image/png",
			"name":"4K-velvet_2_metallic",
			"uri":"4K-velvet_2_metallic.png"
		}
	],
	"accessors":[
		{
			"bufferView":0,
			"componentType":5126,
			"count":30692,
			"max":[
				0.8938341736793518,
				2.0105550289154053,
				0.17415042221546173
			],
			"min":[
				-0.8938341736793518,
				-2.1092820167541504,
				-0.17417289316654205
			],
			"type":"VEC3"
		},
		{
			"bufferView":1,
			"componentType":5126,
			"count":30692,
			"type":"VEC3"
		},
		{
			"bufferView":2,
			"componentType":5126,
			"count":30692,
			"type":"VEC2"
		},
		{
			"bufferView":3,
			"componentType":5126,
			"count":30692,
			"type":"VEC2"
		},
		{
			"bufferView":4,
			"componentType":5123,
			"count":145992,
			"type":"SCALAR"
		},
		{
			"bufferView":5,
			"componentType":5126,
			"count":2312,
			"max":[
				0.9292919635772705,
				0.9624331593513489,
				0.8946632146835327
			],
			"min":[
				-0.8549236059188843,
				-0.9850730895996094,
				-0.8217781782150269
			],
			"type":"VEC3"
		},
		{
			"bufferView":6,
			"componentType":5126,
			"count":2312,
			"type":"VEC3"
		},
		{
			"bufferView":7,
			"componentType":5126,
			"count":2312,
			"type":"VEC2"
		},
		{
			"bufferView":8,
			"componentType":5126,
			"count":2312,
			"type":"VEC2"
		},
		{
			"bufferView":9,
			"componentType":5123,
			"count":13056,
			"type":"SCALAR"
		},
		{
			"bufferView":10,
			"componentType":5126,
			"count":5972,
			"max":[
				4.093388080596924,
				0.8395062685012817,
				0.8395062685012817
			],
			"min":[
				-0.8395062685012817,
				-30.7032413482666,
				-5.321409702301025
			],
			"type":"VEC3"
		},
		{
			"bufferView":11,
			"componentType":5126,
			"count":5972,
			"type":"VEC3"
		},
		{
			"bufferView":12,
			"componentType":5126,
			"count":5972,
			"type":"VEC2"
		},
		{
			"bufferView":13,
			"componentType":5123,
			"count":33792,
			"type":"SCALAR"
		}
	],
	"bufferViews":[
		{
			"buffer":0,
			"byteLength":368304,
			"byteOffset":0,
			"target":34962
		},
		{
			"buffer":0,
			"byteLength":368304,
			"byteOffset":368304,
			"target":34962
		},
		{
			"buffer":0,
			"byteLength":245536,
			"byteOffset":736608,
			"target":34962
		},
		{
			"buffer":0,
			"byteLength":245536,
			"byteOffset":982144,
			"target":34962
		},
		{
			"buffer":0,
			"byteLength":291984,
			"byteOffset":1227680,
			"target":34963
		},
		{
			"buffer":0,
			"byteLength":27744,
			"byteOffset":1519664,
			"target":34962
		},
		{
			"buffer":0,
			"byteLength":27744,
			"byteOffset":1547408,
			"target":34962
		},
		{
			"buffer":0,
			"byteLength":18496,
			"byteOffset":1575152,
			"target":34962
		},
		{
			"buffer":0,
			"byteLength":18496,
			"byteOffset":1593648,
			"target":34962
		},
		{
			"buffer":0,
			"byteLength":26112,
			"byteOffset":1612144,
			"target":34963
		},
		{
			"buffer":0,
			"byteLength":71664,
			"byteOffset":1638256,
			"target":34962
		},
		{
			"buffer":0,
			"byteLength":71664,
			"byteOffset":1709920,
			"target":34962
		},
		{
			"buffer":0,
			"byteLength":47776,
			"byteOffset":1781584,
			"target":34962
		},
		{
			"buffer":0,
			"byteLength":67584,
			"byteOffset":1829360,
			"target":34963
		}
	],
	"samplers":[
		{
			"magFilter":9729,
			"minFilter":9987
		}
	],
	"buffers":[
		{
			"byteLength":1896944,
			"uri":"bakweriFlute.bin"
		}
	]
}
