{
	"asset":{
		"generator":"Khronos glTF Blender I/O v4.1.63",
		"version":"2.0"
	},
	"scene":0,
	"scenes":[
		{
			"name":"Scene",
			"nodes":[
				0
			]
		}
	],
	"nodes":[
		{
			"mesh":0,
			"name":"horn-Seeva"
		}
	],
	"materials":[
		{
			"doubleSided":true,
			"name":"Hair",
			"normalTexture":{
				"index":0,
				"scale":0.40000003576278687,
				"texCoord":1
			},
			"pbrMetallicRoughness":{
				"baseColorFactor":[
					1,
					1,
					1,
					0.9709091186523438
				],
				"baseColorTexture":{
					"index":1,
					"texCoord":1
				},
				"metallicFactor":0.08000001311302185,
				"roughnessFactor":0.7400000095367432
			}
		}
	],
	"meshes":[
		{
			"name":"Cube.001",
			"primitives":[
				{
					"attributes":{
						"POSITION":0,
						"NORMAL":1,
						"TEXCOORD_0":2,
						"TEXCOORD_1":3
					},
					"indices":4,
					"material":0
				}
			]
		}
	],
	"textures":[
		{
			"sampler":0,
			"source":0
		},
		{
			"sampler":0,
			"source":1
		}
	],
	"images":[
		{
			"mimeType":"image/jpeg",
			"name":"Fur__Normal",
			"uri":"Fur__Normal.jpg"
		},
		{
			"mimeType":"image/jpeg",
			"name":"Fur__Base_Color",
			"uri":"Fur__Base_Color.jpg"
		}
	],
	"accessors":[
		{
			"bufferView":0,
			"componentType":5126,
			"count":26376,
			"max":[
				5.950992584228516,
				1.535934567451477,
				2.513590097427368
			],
			"min":[
				-5.939230918884277,
				-2.6495258808135986,
				-1.492760181427002
			],
			"type":"VEC3"
		},
		{
			"bufferView":1,
			"componentType":5126,
			"count":26376,
			"type":"VEC3"
		},
		{
			"bufferView":2,
			"componentType":5126,
			"count":26376,
			"type":"VEC2"
		},
		{
			"bufferView":3,
			"componentType":5126,
			"count":26376,
			"type":"VEC2"
		},
		{
			"bufferView":4,
			"componentType":5123,
			"count":143256,
			"type":"SCALAR"
		}
	],
	"bufferViews":[
		{
			"buffer":0,
			"byteLength":316512,
			"byteOffset":0,
			"target":34962
		},
		{
			"buffer":0,
			"byteLength":316512,
			"byteOffset":316512,
			"target":34962
		},
		{
			"buffer":0,
			"byteLength":211008,
			"byteOffset":633024,
			"target":34962
		},
		{
			"buffer":0,
			"byteLength":211008,
			"byteOffset":844032,
			"target":34962
		},
		{
			"buffer":0,
			"byteLength":286512,
			"byteOffset":1055040,
			"target":34963
		}
	],
	"samplers":[
		{
			"magFilter":9729,
			"minFilter":9987
		}
	],
	"buffers":[
		{
			"byteLength":1341552,
			"uri":"bakweriHorn-Seeva.bin"
		}
	]
}
