{
	"asset":{
		"generator":"Khronos glTF Blender I/O v4.1.63",
		"version":"2.0"
	},
	"scene":0,
	"scenes":[
		{
			"name":"Scene",
			"nodes":[
				0,
				1,
				2,
				3,
				4,
				5,
				6
			]
		}
	],
	"nodes":[
		{
			"mesh":0,
			"name":"Cube"
		},
		{
			"mesh":1,
			"name":"ropes"
		},
		{
			"mesh":2,
			"name":"roopsHoldingSticks"
		},
		{
			"mesh":3,
			"name":"Cube.001"
		},
		{
			"mesh":4,
			"name":"Cube.002"
		},
		{
			"mesh":5,
			"name":"Cube.003"
		},
		{
			"mesh":6,
			"name":"Cube.004"
		}
	],
	"materials":[
		{
			"doubleSided":true,
			"name":"Material",
			"pbrMetallicRoughness":{
				"baseColorTexture":{
					"index":0
				},
				"metallicFactor":0,
				"roughnessFactor":0.5
			}
		},
		{
			"doubleSided":true,
			"name":"Material.002",
			"pbrMetallicRoughness":{
				"baseColorFactor":[
					0.01744597591459751,
					0.01744597591459751,
					0.01744597591459751,
					1
				],
				"metallicFactor":0,
				"roughnessFactor":0.8669724464416504
			}
		},
		{
			"doubleSided":true,
			"name":"Material.001",
			"pbrMetallicRoughness":{
				"baseColorFactor":[
					0.44347843527793884,
					0.15313968062400818,
					0.0800504982471466,
					0.963302731513977
				],
				"metallicFactor":0,
				"roughnessFactor":0.6651376485824585
			}
		}
	],
	"meshes":[
		{
			"name":"Cube",
			"primitives":[
				{
					"attributes":{
						"POSITION":0,
						"NORMAL":1,
						"TEXCOORD_0":2
					},
					"indices":3,
					"material":0
				}
			]
		},
		{
			"name":"B\u00e9zierCurve",
			"primitives":[
				{
					"attributes":{
						"POSITION":4,
						"NORMAL":5,
						"TEXCOORD_0":6
					},
					"indices":7,
					"material":1
				}
			]
		},
		{
			"name":"NurbsPath.002",
			"primitives":[
				{
					"attributes":{
						"POSITION":8,
						"NORMAL":9,
						"TEXCOORD_0":10
					},
					"indices":11,
					"material":1
				}
			]
		},
		{
			"name":"Cube.001",
			"primitives":[
				{
					"attributes":{
						"POSITION":12,
						"NORMAL":13,
						"TEXCOORD_0":14
					},
					"indices":15,
					"material":2
				}
			]
		},
		{
			"name":"Cube.002",
			"primitives":[
				{
					"attributes":{
						"POSITION":16,
						"NORMAL":17,
						"TEXCOORD_0":18
					},
					"indices":15,
					"material":2
				}
			]
		},
		{
			"name":"Cube.003",
			"primitives":[
				{
					"attributes":{
						"POSITION":19,
						"NORMAL":20,
						"TEXCOORD_0":21
					},
					"indices":22,
					"material":2
				}
			]
		},
		{
			"name":"Cube.004",
			"primitives":[
				{
					"attributes":{
						"POSITION":23,
						"NORMAL":24,
						"TEXCOORD_0":25
					},
					"indices":15,
					"material":2
				}
			]
		}
	],
	"textures":[
		{
			"sampler":0,
			"source":0
		}
	],
	"images":[
		{
			"mimeType":"image/jpeg",
			"name":"BakweriArtifact",
			"uri":"BakweriArtifact.jpg"
		}
	],
	"accessors":[
		{
			"bufferView":0,
			"componentType":5126,
			"count":28066,
			"max":[
				0.5683001279830933,
				1.653421401977539,
				0.6259310245513916
			],
			"min":[
				-0.5655766129493713,
				-0.41497868299484253,
				-0.6215493679046631
			],
			"type":"VEC3"
		},
		{
			"bufferView":1,
			"componentType":5126,
			"count":28066,
			"type":"VEC3"
		},
		{
			"bufferView":2,
			"componentType":5126,
			"count":28066,
			"type":"VEC2"
		},
		{
			"bufferView":3,
			"componentType":5123,
			"count":168960,
			"type":"SCALAR"
		},
		{
			"bufferView":4,
			"componentType":5126,
			"count":37936,
			"max":[
				0.44333723187446594,
				1.638972520828247,
				0.4670703411102295
			],
			"min":[
				-0.44270509481430054,
				1.5759618282318115,
				-0.4718754291534424
			],
			"type":"VEC3"
		},
		{
			"bufferView":5,
			"componentType":5126,
			"count":37936,
			"type":"VEC3"
		},
		{
			"bufferView":6,
			"componentType":5126,
			"count":37936,
			"type":"VEC2"
		},
		{
			"bufferView":7,
			"componentType":5123,
			"count":188304,
			"type":"SCALAR"
		},
		{
			"bufferView":8,
			"componentType":5126,
			"count":43188,
			"max":[
				0.6183152198791504,
				1.6540488004684448,
				0.6355931758880615
			],
			"min":[
				-0.6176831126213074,
				1.2816485166549683,
				-0.5995217561721802
			],
			"type":"VEC3"
		},
		{
			"bufferView":9,
			"componentType":5126,
			"count":43188,
			"type":"VEC3"
		},
		{
			"bufferView":10,
			"componentType":5126,
			"count":43188,
			"type":"VEC2"
		},
		{
			"bufferView":11,
			"componentType":5123,
			"count":234624,
			"type":"SCALAR"
		},
		{
			"bufferView":12,
			"componentType":5126,
			"count":1938,
			"max":[
				0.6610119342803955,
				1.503435492515564,
				0.06438803672790527
			],
			"min":[
				-0.6576878428459167,
				1.0144180059432983,
				-0.04738259315490723
			],
			"type":"VEC3"
		},
		{
			"bufferView":13,
			"componentType":5126,
			"count":1938,
			"type":"VEC3"
		},
		{
			"bufferView":14,
			"componentType":5126,
			"count":1938,
			"type":"VEC2"
		},
		{
			"bufferView":15,
			"componentType":5123,
			"count":10752,
			"type":"SCALAR"
		},
		{
			"bufferView":16,
			"componentType":5126,
			"count":1938,
			"max":[
				0.4342426061630249,
				1.503435492515564,
				0.5449965000152588
			],
			"min":[
				-0.42463356256484985,
				1.0144180059432983,
				-0.5150306224822998
			],
			"type":"VEC3"
		},
		{
			"bufferView":17,
			"componentType":5126,
			"count":1938,
			"type":"VEC3"
		},
		{
			"bufferView":18,
			"componentType":5126,
			"count":1938,
			"type":"VEC2"
		},
		{
			"bufferView":19,
			"componentType":5126,
			"count":1938,
			"max":[
				0.09061551094055176,
				1.503435492515564,
				0.6754958629608154
			],
			"min":[
				-0.07149095833301544,
				1.0144180059432983,
				-0.6420000791549683
			],
			"type":"VEC3"
		},
		{
			"bufferView":20,
			"componentType":5126,
			"count":1938,
			"type":"VEC3"
		},
		{
			"bufferView":21,
			"componentType":5126,
			"count":1938,
			"type":"VEC2"
		},
		{
			"bufferView":22,
			"componentType":5123,
			"count":10752,
			"type":"SCALAR"
		},
		{
			"bufferView":23,
			"componentType":5126,
			"count":1938,
			"max":[
				0.41334959864616394,
				1.5034356117248535,
				0.5678136348724365
			],
			"min":[
				-0.3841346502304077,
				1.0144180059432983,
				-0.5372307300567627
			],
			"type":"VEC3"
		},
		{
			"bufferView":24,
			"componentType":5126,
			"count":1938,
			"type":"VEC3"
		},
		{
			"bufferView":25,
			"componentType":5126,
			"count":1938,
			"type":"VEC2"
		}
	],
	"bufferViews":[
		{
			"buffer":0,
			"byteLength":336792,
			"byteOffset":0,
			"target":34962
		},
		{
			"buffer":0,
			"byteLength":336792,
			"byteOffset":336792,
			"target":34962
		},
		{
			"buffer":0,
			"byteLength":224528,
			"byteOffset":673584,
			"target":34962
		},
		{
			"buffer":0,
			"byteLength":337920,
			"byteOffset":898112,
			"target":34963
		},
		{
			"buffer":0,
			"byteLength":455232,
			"byteOffset":1236032,
			"target":34962
		},
		{
			"buffer":0,
			"byteLength":455232,
			"byteOffset":1691264,
			"target":34962
		},
		{
			"buffer":0,
			"byteLength":303488,
			"byteOffset":2146496,
			"target":34962
		},
		{
			"buffer":0,
			"byteLength":376608,
			"byteOffset":2449984,
			"target":34963
		},
		{
			"buffer":0,
			"byteLength":518256,
			"byteOffset":2826592,
			"target":34962
		},
		{
			"buffer":0,
			"byteLength":518256,
			"byteOffset":3344848,
			"target":34962
		},
		{
			"buffer":0,
			"byteLength":345504,
			"byteOffset":3863104,
			"target":34962
		},
		{
			"buffer":0,
			"byteLength":469248,
			"byteOffset":4208608,
			"target":34963
		},
		{
			"buffer":0,
			"byteLength":23256,
			"byteOffset":4677856,
			"target":34962
		},
		{
			"buffer":0,
			"byteLength":23256,
			"byteOffset":4701112,
			"target":34962
		},
		{
			"buffer":0,
			"byteLength":15504,
			"byteOffset":4724368,
			"target":34962
		},
		{
			"buffer":0,
			"byteLength":21504,
			"byteOffset":4739872,
			"target":34963
		},
		{
			"buffer":0,
			"byteLength":23256,
			"byteOffset":4761376,
			"target":34962
		},
		{
			"buffer":0,
			"byteLength":23256,
			"byteOffset":4784632,
			"target":34962
		},
		{
			"buffer":0,
			"byteLength":15504,
			"byteOffset":4807888,
			"target":34962
		},
		{
			"buffer":0,
			"byteLength":23256,
			"byteOffset":4823392,
			"target":34962
		},
		{
			"buffer":0,
			"byteLength":23256,
			"byteOffset":4846648,
			"target":34962
		},
		{
			"buffer":0,
			"byteLength":15504,
			"byteOffset":4869904,
			"target":34962
		},
		{
			"buffer":0,
			"byteLength":21504,
			"byteOffset":4885408,
			"target":34963
		},
		{
			"buffer":0,
			"byteLength":23256,
			"byteOffset":4906912,
			"target":34962
		},
		{
			"buffer":0,
			"byteLength":23256,
			"byteOffset":4930168,
			"target":34962
		},
		{
			"buffer":0,
			"byteLength":15504,
			"byteOffset":4953424,
			"target":34962
		}
	],
	"samplers":[
		{
			"magFilter":9729,
			"minFilter":9987
		}
	],
	"buffers":[
		{
			"byteLength":4968928,
			"uri":"bakweriDrum.bin"
		}
	]
}
