{
	"asset":{
		"generator":"Khronos glTF Blender I/O v4.1.63",
		"version":"2.0"
	},
	"extensionsUsed":[
		"KHR_texture_transform"
	],
	"extensionsRequired":[
		"KHR_texture_transform"
	],
	"scene":0,
	"scenes":[
		{
			"name":"Scene",
			"nodes":[
				0,
				1
			]
		}
	],
	"nodes":[
		{
			"mesh":0,
			"name":"Cube"
		},
		{
			"mesh":1,
			"name":"Cube.001"
		}
	],
	"materials":[
		{
			"doubleSided":true,
			"name":"Rust 02",
			"normalTexture":{
				"extensions":{
					"KHR_texture_transform":{
						"offset":[
							0,
							0.5999999642372131
						],
						"scale":[
							0.30000007152557373,
							0.40000003576278687
						]
					}
				},
				"index":0,
				"texCoord":1
			},
			"pbrMetallicRoughness":{
				"baseColorTexture":{
					"extensions":{
						"KHR_texture_transform":{
							"offset":[
								0,
								0.5999999642372131
							],
							"scale":[
								0.30000007152557373,
								0.40000003576278687
							]
						}
					},
					"index":1,
					"texCoord":1
				},
				"metallicRoughnessTexture":{
					"extensions":{
						"KHR_texture_transform":{
							"offset":[
								0,
								0.5999999642372131
							],
							"scale":[
								0.30000007152557373,
								0.40000003576278687
							]
						}
					},
					"index":2,
					"texCoord":1
				}
			}
		},
		{
			"doubleSided":true,
			"name":"Rust 02",
			"normalTexture":{
				"extensions":{
					"KHR_texture_transform":{
						"offset":[
							0,
							0.5999999642372131
						],
						"scale":[
							0.30000007152557373,
							0.40000003576278687
						]
					}
				},
				"index":0
			},
			"pbrMetallicRoughness":{
				"baseColorTexture":{
					"extensions":{
						"KHR_texture_transform":{
							"offset":[
								0,
								0.5999999642372131
							],
							"scale":[
								0.30000007152557373,
								0.40000003576278687
							]
						}
					},
					"index":1
				},
				"metallicRoughnessTexture":{
					"extensions":{
						"KHR_texture_transform":{
							"offset":[
								0,
								0.5999999642372131
							],
							"scale":[
								0.30000007152557373,
								0.40000003576278687
							]
						}
					},
					"index":2
				}
			}
		}
	],
	"meshes":[
		{
			"name":"Cube.001",
			"primitives":[
				{
					"attributes":{
						"POSITION":0,
						"NORMAL":1,
						"TEXCOORD_0":2,
						"TEXCOORD_1":3
					},
					"indices":4,
					"material":0
				}
			]
		},
		{
			"name":"Cube.002",
			"primitives":[
				{
					"attributes":{
						"POSITION":5,
						"NORMAL":6,
						"TEXCOORD_0":7
					},
					"indices":8,
					"material":1
				}
			]
		}
	],
	"textures":[
		{
			"sampler":0,
			"source":0
		},
		{
			"sampler":0,
			"source":1
		},
		{
			"sampler":0,
			"source":2
		}
	],
	"images":[
		{
			"mimeType":"image/jpeg",
			"name":"normal_map_opengl",
			"uri":"normal_map_opengl.jpg"
		},
		{
			"mimeType":"image/jpeg",
			"name":"color_map",
			"uri":"color_map.jpg"
		},
		{
			"mimeType":"image/png",
			"name":"metalness_map.jpg-roughness_map.jpg",
			"uri":"metalness_map_jpg-roughness_map_jpg.png"
		}
	],
	"accessors":[
		{
			"bufferView":0,
			"componentType":5126,
			"count":4356,
			"max":[
				2.4513185024261475,
				0.5929996967315674,
				0.9905679821968079
			],
			"min":[
				-2.4513182640075684,
				-2.9678494930267334,
				-0.9905683994293213
			],
			"type":"VEC3"
		},
		{
			"bufferView":1,
			"componentType":5126,
			"count":4356,
			"type":"VEC3"
		},
		{
			"bufferView":2,
			"componentType":5126,
			"count":4356,
			"type":"VEC2"
		},
		{
			"bufferView":3,
			"componentType":5126,
			"count":4356,
			"type":"VEC2"
		},
		{
			"bufferView":4,
			"componentType":5123,
			"count":22272,
			"type":"SCALAR"
		},
		{
			"bufferView":5,
			"componentType":5126,
			"count":13869,
			"max":[
				1.5256441831588745,
				3.2768473625183105,
				0.30593958497047424
			],
			"min":[
				-1.5256441831588745,
				0.5929996967315674,
				-0.3059399425983429
			],
			"type":"VEC3"
		},
		{
			"bufferView":6,
			"componentType":5126,
			"count":13869,
			"type":"VEC3"
		},
		{
			"bufferView":7,
			"componentType":5126,
			"count":13869,
			"type":"VEC2"
		},
		{
			"bufferView":8,
			"componentType":5123,
			"count":62976,
			"type":"SCALAR"
		}
	],
	"bufferViews":[
		{
			"buffer":0,
			"byteLength":52272,
			"byteOffset":0,
			"target":34962
		},
		{
			"buffer":0,
			"byteLength":52272,
			"byteOffset":52272,
			"target":34962
		},
		{
			"buffer":0,
			"byteLength":34848,
			"byteOffset":104544,
			"target":34962
		},
		{
			"buffer":0,
			"byteLength":34848,
			"byteOffset":139392,
			"target":34962
		},
		{
			"buffer":0,
			"byteLength":44544,
			"byteOffset":174240,
			"target":34963
		},
		{
			"buffer":0,
			"byteLength":166428,
			"byteOffset":218784,
			"target":34962
		},
		{
			"buffer":0,
			"byteLength":166428,
			"byteOffset":385212,
			"target":34962
		},
		{
			"buffer":0,
			"byteLength":110952,
			"byteOffset":551640,
			"target":34962
		},
		{
			"buffer":0,
			"byteLength":125952,
			"byteOffset":662592,
			"target":34963
		}
	],
	"samplers":[
		{
			"magFilter":9729,
			"minFilter":9987
		}
	],
	"buffers":[
		{
			"byteLength":788544,
			"uri":"bamike-gong.bin"
		}
	]
}
